<?xml version="1.0" encoding="UTF-8"?>
<svg width="24px" height="24px" viewBox="0 0 24 24" version="1.1" xmlns="http://www.w3.org/2000/svg" xmlns:xlink="http://www.w3.org/1999/xlink">
    <!-- Generator: Sketch 62 (91390) - https://sketch.com -->
    <title>집반찬연구소/cart</title>
    <desc>Created with Sketch.</desc>
    <defs>
        <path d="M17.6065,17.7727 L5.7175,17.7727 L4.6465,10.1727 L18.6775,10.1727 L17.6065,17.7727 Z M19.7315,9.1707 L17.6975,9.1717 C17.6835,9.1517 17.6775,9.1297 17.6615,9.1117 L14.1175,5.1667 C13.9325,4.9597 13.6165,4.9437 13.4115,5.1277 C13.2065,5.3127 13.1885,5.6287 13.3735,5.8347 L16.3725,9.1717 L7.0875,9.1727 L10.0875,5.8347 C10.2725,5.6287 10.2545,5.3127 10.0495,5.1277 C9.8445,4.9437 9.5285,4.9597 9.3435,5.1667 L5.7995,9.1117 C5.7825,9.1297 5.7765,9.1537 5.7625,9.1727 L4.4015,9.1727 L4.0715,9.1727 L4.0705,9.1727 L3.5005,9.1737 C3.2235,9.1737 3.0005,9.3977 3.0005,9.6737 C3.0005,9.9507 3.2235,10.1737 3.5005,10.1737 L3.6365,10.1737 L4.7895,18.3427 C4.8235,18.5887 5.0355,18.7727 5.2845,18.7727 L18.0415,18.7727 C18.2905,18.7727 18.5015,18.5887 18.5365,18.3427 L19.6885,10.1707 L19.7325,10.1707 C20.0075,10.1707 20.2325,9.9477 20.2315033,9.6707 C20.2315033,9.3957 20.0075,9.1707 19.7315,9.1707 L19.7315,9.1707 Z M11.7745,15.301 C12.0505,15.301 12.2745,15.077 12.2745,14.801 L12.2745,13.146 C12.2745,12.869 12.0505,12.646 11.7745,12.646 C11.4985,12.646 11.2745,12.869 11.2745,13.146 L11.2745,14.801 C11.2745,15.077 11.4985,15.301 11.7745,15.301 M15.3741,15.301 C15.6501,15.301 15.8741,15.077 15.8741,14.801 L15.8741,13.146 C15.8741,12.869 15.6501,12.646 15.3741,12.646 C15.0991,12.646 14.8741,12.869 14.8741,13.146 L14.8741,14.801 C14.8741,15.077 15.0991,15.301 15.3741,15.301 M8.3741,15.301 C8.6501,15.301 8.8741,15.077 8.8741,14.801 L8.8741,13.146 C8.8741,12.869 8.6501,12.646 8.3741,12.646 C8.0991,12.646 7.8741,12.869 7.8741,13.146 L7.8741,14.801 C7.8741,15.077 8.0991,15.301 8.3741,15.301" id="path-1"></path>
    </defs>
    <g id="집반찬연구소/cart" stroke="none" stroke-width="1" fill="none" fill-rule="evenodd">
        <mask id="mask-2" fill="white">
            <use xlink:href="#path-1"></use>
        </mask>
        <use id="Mask" fill="#1D1D1B" xlink:href="#path-1"></use>
        <g id="color/g-7" mask="url(#mask-2)" fill="#000000">
            <rect id="Rectangle" x="0" y="0" width="24" height="24"></rect>
        </g>
    </g>
</svg>