<?xml version="1.0" encoding="UTF-8"?>
<svg width="24px" height="24px" viewBox="0 0 24 24" version="1.1" xmlns="http://www.w3.org/2000/svg" xmlns:xlink="http://www.w3.org/1999/xlink">
    <!-- Generator: Sketch 62 (91390) - https://sketch.com -->
    <title>집반찬연구소/book</title>
    <desc>Created with Sketch.</desc>
    <defs>
        <path d="M21.0996,5.49985 C21.3756,5.49985 21.5996,5.72385 21.5996,5.99985 L21.5996,5.99985 L21.5996,18.13485 C21.5996,18.41135 21.3756,18.63485 21.0996,18.63485 L21.0996,18.63485 L3.5001,18.63485 C3.2241,18.63485 3.0001,18.41135 3.0001,18.13485 L3.0001,18.13485 L3.0001,5.99985 C3.0001,5.72385 3.2241,5.49985 3.5001,5.49985 L3.5001,5.49985 Z M20.5996,6.49985 L12.6746,6.49985 L12.6746,17.54285 C12.6746,17.57435 12.6711,17.60485 12.6656,17.63485 L12.6656,17.63485 L20.5996,17.63485 L20.5996,6.49985 Z M11.6746,6.49985 L4.0001,6.49985 L4.0001,17.63485 L11.6841,17.63485 C11.6786,17.60485 11.6746,17.57435 11.6746,17.54285 L11.6746,17.54285 L11.6746,6.49985 Z M18.66505,13.78375 C18.94105,13.78375 19.16505,14.00775 19.16505,14.28375 C19.16505,14.5295278 18.9880623,14.733429 18.7548881,14.7757061 L18.66505,14.78375 L14.94355,14.78375 C14.66755,14.78375 14.44355,14.56025 14.44355,14.28375 C14.44355,14.0384167 14.6205377,13.8341698 14.8537119,13.7918104 L14.94355,13.78375 L18.66505,13.78375 Z M9.70925,13.78375 C9.98525,13.78375 10.20925,14.00775 10.20925,14.28375 C10.20925,14.56025 9.98525,14.78375 9.70925,14.78375 L9.70925,14.78375 L5.98825,14.78375 C5.71175,14.78375 5.48825,14.56025 5.48825,14.28375 C5.48825,14.00775 5.71175,13.78375 5.98825,13.78375 L5.98825,13.78375 Z M18.6651,11.48495 C18.9411,11.48495 19.1651,11.70845 19.1651,11.98495 C19.1651,12.2302833 18.9881123,12.4345302 18.7549381,12.4768896 L18.6651,12.48495 L14.9436,12.48495 C14.6676,12.48495 14.4436,12.26095 14.4436,11.98495 C14.4436,11.7391722 14.6205877,11.535271 14.8537619,11.4929939 L14.9436,11.48495 L18.6651,11.48495 Z M9.70925,11.48495 C9.98525,11.48495 10.20925,11.70845 10.20925,11.98495 C10.20925,12.26095 9.98525,12.48495 9.70925,12.48495 L9.70925,12.48495 L5.98825,12.48495 C5.71175,12.48495 5.48825,12.26095 5.48825,11.98495 C5.48825,11.70845 5.71175,11.48495 5.98825,11.48495 L5.98825,11.48495 Z M18.6651,9.18565 C18.9411,9.18565 19.1651,9.40965 19.1651,9.68565 C19.1651,9.96215 18.9411,10.18565 18.6651,10.18565 L18.6651,10.18565 L14.9436,10.18565 C14.6676,10.18565 14.4436,9.96215 14.4436,9.68565 C14.4436,9.40965 14.6676,9.18565 14.9436,9.18565 L14.9436,9.18565 Z M9.70925,9.18565 C9.98525,9.18565 10.20925,9.40965 10.20925,9.68565 C10.20925,9.96215 9.98525,10.18565 9.70925,10.18565 L9.70925,10.18565 L5.98825,10.18565 C5.71175,10.18565 5.48825,9.96215 5.48825,9.68565 C5.48825,9.40965 5.71175,9.18565 5.98825,9.18565 L5.98825,9.18565 Z" id="path-1"></path>
    </defs>
    <g id="집반찬연구소/book" stroke="none" stroke-width="1" fill="none" fill-rule="evenodd">
        <mask id="mask-2" fill="white">
            <use xlink:href="#path-1"></use>
        </mask>
        <use id="Mask" fill="#1D1D1B" xlink:href="#path-1"></use>
        <g id="color/g-7" mask="url(#mask-2)" fill="#000000">
            <rect id="Rectangle" x="0" y="0" width="24" height="24"></rect>
        </g>
    </g>
</svg>