<?xml version="1.0" encoding="UTF-8"?>
<svg width="24px" height="24px" viewBox="0 0 24 24" version="1.1" xmlns="http://www.w3.org/2000/svg" xmlns:xlink="http://www.w3.org/1999/xlink">
    <!-- Generator: Sketch 62 (91390) - https://sketch.com -->
    <title>집반찬연구소/sidedish</title>
    <desc>Created with Sketch.</desc>
    <defs>
        <path d="M9.5566,9.4128 C9.3596,9.6308 9.0216,9.7358 8.5246,9.7358 C8.5166,9.7358 8.5086,9.7368 8.4996,9.7358 C8.4746,9.7358 8.4526,9.7468 8.4266,9.7508 C8.4026,9.7468 8.3796,9.7358 8.3546,9.7358 C8.3456,9.7368 8.3376,9.7358 8.3286,9.7358 C7.8326,9.7358 7.4946,9.6308 7.2976,9.4128 C6.9406,9.0198 6.9716,8.1848 7.0496,7.4208 C7.1926,6.0178 7.7416,4.9998 8.3546,4.9998 C8.3796,4.9998 8.4026,4.9888 8.4266,4.9848 C8.4526,4.9888 8.4746,4.9998 8.5006,4.9998 C9.1136,4.9998 9.6606,6.0178 9.8046,7.4208 C9.8816,8.1848 9.9136,9.0198 9.5566,9.4128 M8.5006,3.9998 C9.6916,3.9998 10.5936,5.3028 10.7996,7.3188 C10.9046,8.3518 10.9166,9.4028 10.2966,10.0858 C9.9756,10.4388 9.5096,10.6418 8.9236,10.7068 L8.9236,10.7068 L8.9236,19.5808 C8.9236,19.8558 8.7006,20.0808 8.4236,20.0808 C8.1476,20.0808 7.9236,19.8558 7.9236,19.5808 L7.9236,19.5808 L7.9236,10.7058 C7.3406,10.6408 6.8776,10.4378 6.5576,10.0858 C5.9376,9.4028 5.9506,8.3518 6.0556,7.3188 C6.2606,5.3028 7.1626,3.9998 8.3546,3.9998 C8.3796,3.9998 8.4026,4.0108 8.4266,4.0148 C8.4526,4.0108 8.4746,3.9998 8.5006,3.9998 Z M14.4228,4.069 C14.6978,4.069 14.9228,4.293 14.9228,4.569 L14.9228,4.569 L14.9228,19.581 C14.9228,19.856 14.6978,20.081 14.4228,20.081 C14.1468,20.081 13.9228,19.856 13.9228,19.581 L13.9228,19.581 L13.9228,4.569 C13.9228,4.293 14.1468,4.069 14.4228,4.069 Z M16.5858,4.1094 C16.8598,4.0814 17.1058,4.2824 17.1338,4.5564 L17.1338,4.5564 L18.6428,19.4924 C18.6708,19.7664 18.4698,20.0124 18.1958,20.0394 C18.1788,20.0414 18.1608,20.0424 18.1448,20.0424 C17.8908,20.0424 17.6738,19.8504 17.6478,19.5924 L17.6478,19.5924 L16.1388,4.6574 C16.1108,4.3824 16.3118,4.1374 16.5858,4.1094 Z" id="path-1"></path>
    </defs>
    <g id="집반찬연구소/sidedish" stroke="none" stroke-width="1" fill="none" fill-rule="evenodd">
        <mask id="mask-2" fill="white">
            <use xlink:href="#path-1"></use>
        </mask>
        <use id="Mask" fill="#1D1D1B" xlink:href="#path-1"></use>
        <g id="color/g-7" mask="url(#mask-2)" fill="#000000">
            <rect id="Rectangle" x="0" y="0" width="24" height="24"></rect>
        </g>
    </g>
</svg>